HIERARCHY
ROOT hip
{
  OFFSET 0.00112043 5.09927 -9.65472
  CHANNELS 6 Xposition Yposition Zposition Zrotation Xrotation Yrotation
  JOINT abdomen
  {
    OFFSET 0 -1.186 -1.5018
    CHANNELS 3 Zrotation Xrotation Yrotation
    JOINT abdomen2
    {
      OFFSET 0 9.964 0.2134
      CHANNELS 3 Zrotation Xrotation Yrotation
      JOINT chest
      {
        OFFSET 0 13.134 -3.2573
        CHANNELS 3 Zrotation Xrotation Yrotation
        JOINT neck
        {
          OFFSET 0 20.686 -1.6905
          CHANNELS 3 Zrotation Xrotation Yrotation
          JOINT head
          {
            OFFSET 0 7.238 -0.1237
            CHANNELS 3 Zrotation Xrotation Yrotation
            End Site
            {
              OFFSET 0 0 0
            }
          }
        }
        JOINT lCollar
        {
          OFFSET 1.7069 20.075 5.0056
          CHANNELS 3 Zrotation Xrotation Yrotation
          JOINT lShldr
          {
            OFFSET 13.6458 -0.047 -4.849
            CHANNELS 3 Zrotation Xrotation Yrotation
            JOINT lForeArm
            {
              OFFSET 28.3255 -0.9759 2.2888
              CHANNELS 3 Zrotation Xrotation Yrotation
              JOINT lHand
              {
                OFFSET 22.1583 -0.53 10.8316
                CHANNELS 3 Zrotation Xrotation Yrotation
                JOINT lThumb1
                {
                  OFFSET 0.786 0.112 2.5817
                  CHANNELS 3 Zrotation Xrotation Yrotation
                  JOINT lThumb2
                  {
                    OFFSET 0.3601 -0.878 4.2331
                    CHANNELS 3 Zrotation Xrotation Yrotation
                    JOINT lThumb2_End
                    {
                      OFFSET 1.8127 -1.216 2.2227
                      CHANNELS 3 Zrotation Xrotation Yrotation
                      End Site
                      {
                        OFFSET 0.0181 -0.0122 0.0222
                      }
                    }
                  }
                }
                JOINT lCarpal1
                {
                  OFFSET 0.9571 1.114 1.7695
                  CHANNELS 3 Zrotation Xrotation Yrotation
                  JOINT lIndex1
                  {
                    OFFSET 4.1246 0.487 4.1451
                    CHANNELS 3 Zrotation Xrotation Yrotation
                    JOINT lIndex2
                    {
                      OFFSET 3.4052 -1.454 2.7682
                      CHANNELS 3 Zrotation Xrotation Yrotation
                      JOINT lIndex2_End
                      {
                        OFFSET 1.4531 -1.795 1.2713
                        CHANNELS 3 Zrotation Xrotation Yrotation
                        End Site
                        {
                          OFFSET 0.0145 -0.0179 0.0127
                        }
                      }
                    }
                  }
                  JOINT lMid1
                  {
                    OFFSET 5.6954 0.21 2.1184
                    CHANNELS 3 Zrotation Xrotation Yrotation
                    JOINT lMid2
                    {
                      OFFSET 3.9766 -1.54 2.3863
                      CHANNELS 3 Zrotation Xrotation Yrotation
                      JOINT lMid2_End
                      {
                        OFFSET 1.4042 -1.926 1.125
                        CHANNELS 3 Zrotation Xrotation Yrotation
                        End Site
                        {
                          OFFSET 0.014 -0.0193 0.0113
                        }
                      }
                    }
                  }
                }
                JOINT lCarpal2
                {
                  OFFSET 2.0956 0.66 -0.3894
                  CHANNELS 3 Zrotation Xrotation Yrotation
                  JOINT lRing1
                  {
                    OFFSET 5.0395 -0.09 2.4971
                    CHANNELS 3 Zrotation Xrotation Yrotation
                    JOINT lRing2
                    {
                      OFFSET 3.7921 -1.552 1.4806
                      CHANNELS 3 Zrotation Xrotation Yrotation
                      JOINT lRing2_End
                      {
                        OFFSET 1.4655 -1.808 0.9609
                        CHANNELS 3 Zrotation Xrotation Yrotation
                        End Site
                        {
                          OFFSET 0.0147 -0.0181 0.0096
                        }
                      }
                    }
                  }
                  JOINT lPinky1
                  {
                    OFFSET 4.9141 -1.269 0.3591
                    CHANNELS 3 Zrotation Xrotation Yrotation
                    JOINT lPinky2
                    {
                      OFFSET 3.1477 -1.685 0.8462
                      CHANNELS 3 Zrotation Xrotation Yrotation
                      JOINT lPinky2_End
                      {
                        OFFSET 0.8055 -1.585 0.7955
                        CHANNELS 3 Zrotation Xrotation Yrotation
                        End Site
                        {
                          OFFSET 0.0081 -0.0158 0.008
                        }
                      }
                    }
                  }
                }
              }
            }
          }
        }
        JOINT rCollar
        {
          OFFSET -1.7069 20.075 5.0056
          CHANNELS 3 Zrotation Xrotation Yrotation
          JOINT rShldr
          {
            OFFSET -13.6458 -0.047 -4.849
            CHANNELS 3 Zrotation Xrotation Yrotation
            JOINT rForeArm
            {
              OFFSET -28.3255 -0.9759 2.2888
              CHANNELS 3 Zrotation Xrotation Yrotation
              JOINT rHand
              {
                OFFSET -22.1583 -0.53 10.8316
                CHANNELS 3 Zrotation Xrotation Yrotation
                JOINT rThumb1
                {
                  OFFSET -0.786 0.112 2.5817
                  CHANNELS 3 Zrotation Xrotation Yrotation
                  JOINT rThumb2
                  {
                    OFFSET -0.3601 -0.878 4.2331
                    CHANNELS 3 Zrotation Xrotation Yrotation
                    JOINT rThumb2_End
                    {
                      OFFSET -1.8127 -1.216 2.2227
                      CHANNELS 3 Zrotation Xrotation Yrotation
                      End Site
                      {
                        OFFSET -0.0181 -0.0122 0.0222
                      }
                    }
                  }
                }
                JOINT rCarpal1
                {
                  OFFSET -0.9571 1.114 1.7695
                  CHANNELS 3 Zrotation Xrotation Yrotation
                  JOINT rIndex1
                  {
                    OFFSET -4.1246 0.487 4.1451
                    CHANNELS 3 Zrotation Xrotation Yrotation
                    JOINT rIndex2
                    {
                      OFFSET -3.4052 -1.454 2.7682
                      CHANNELS 3 Zrotation Xrotation Yrotation
                      JOINT rIndex2_End
                      {
                        OFFSET -1.4531 -1.795 1.2713
                        CHANNELS 3 Zrotation Xrotation Yrotation
                        End Site
                        {
                          OFFSET -0.0145 -0.018 0.0127
                        }
                      }
                    }
                  }
                  JOINT rMid1
                  {
                    OFFSET -5.6954 0.21 2.1184
                    CHANNELS 3 Zrotation Xrotation Yrotation
                    JOINT rMid2
                    {
                      OFFSET -3.9766 -1.54 2.3863
                      CHANNELS 3 Zrotation Xrotation Yrotation
                      JOINT rMid2_End
                      {
                        OFFSET -1.4042 -1.926 1.125
                        CHANNELS 3 Zrotation Xrotation Yrotation
                        End Site
                        {
                          OFFSET -0.014 -0.0193 0.0113
                        }
                      }
                    }
                  }
                }
                JOINT rCarpal2
                {
                  OFFSET -2.0956 0.66 -0.3894
                  CHANNELS 3 Zrotation Xrotation Yrotation
                  JOINT rRing1
                  {
                    OFFSET -5.0395 -0.09 2.4971
                    CHANNELS 3 Zrotation Xrotation Yrotation
                    JOINT rRing2
                    {
                      OFFSET -3.7921 -1.552 1.4806
                      CHANNELS 3 Zrotation Xrotation Yrotation
                      JOINT rRing2_End
                      {
                        OFFSET -1.4655 -1.808 0.9609
                        CHANNELS 3 Zrotation Xrotation Yrotation
                        End Site
                        {
                          OFFSET -0.0147 -0.0181 0.0096
                        }
                      }
                    }
                  }
                  JOINT rPinky1
                  {
                    OFFSET -4.9141 -1.269 0.3592
                    CHANNELS 3 Zrotation Xrotation Yrotation
                    JOINT rPinky2
                    {
                      OFFSET -3.1477 -1.685 0.8462
                      CHANNELS 3 Zrotation Xrotation Yrotation
                      JOINT rPinky2_End
                      {
                        OFFSET -0.8055 -1.585 0.7955
                        CHANNELS 3 Zrotation Xrotation Yrotation
                        End Site
                        {
                          OFFSET -0.0081 -0.0158 0.008
                        }
                      }
                    }
                  }
                }
              }
            }
          }
        }
      }
    }
  }
  JOINT lThigh
  {
    OFFSET 8.367 -8.2066 0.5982
    CHANNELS 3 Zrotation Xrotation Yrotation
    JOINT lShin
    {
      OFFSET 2.1923 -43.463 -0.4932
      CHANNELS 3 Zrotation Xrotation Yrotation
      JOINT lFoot
      {
        OFFSET 0.7333 -45.8593 -2.6451
        CHANNELS 3 Zrotation Xrotation Yrotation
        End Site
        {
          OFFSET 2.6618 -4.2699 12.3931
        }
      }
    }
  }
  JOINT rThigh
  {
    OFFSET -8.367 -8.2066 0.5982
    CHANNELS 3 Zrotation Xrotation Yrotation
    JOINT rShin
    {
      OFFSET -2.1923 -43.463 -0.4931
      CHANNELS 3 Zrotation Xrotation Yrotation
      JOINT rFoot
      {
        OFFSET -0.7333 -45.8593 -2.6451
        CHANNELS 3 Zrotation Xrotation Yrotation
        End Site
        {
          OFFSET -2.6618 -4.2699 12.3931
        }
      }
    }
  }
}
MOTION
Frames:	4
Frame Time:	0.0333333
0 91.7903 2.51682 0 0 -0 0 0 -0 0 0 -0 0 0 -0 0 0 -0 0 0 -0 0 0 -0 1.66051 0.0835086 5.75766 -0.0175111 0.895433 15.7816 7.95139e-016 -1.98785e-016 -0 5.46658e-016 -3.97569e-016 -0 5.96354e-016 0 -0 3.97569e-016 1.98785e-016 9.54166e-015 1.49089e-016 -3.97569e-016 -0 6.4605e-016 0 3.18055e-015 5.96354e-016 0 3.18055e-015 8.94531e-016 -1.98785e-016 6.36111e-015 6.4605e-016 0 3.18055e-015 5.96354e-016 0 3.18055e-015 8.94531e-016 -1.98785e-016 6.36111e-015 1.49089e-016 -3.97569e-016 -0 6.4605e-016 0 3.18055e-015 5.96354e-016 0 3.18055e-015 8.94531e-016 -1.98785e-016 6.36111e-015 6.4605e-016 0 3.18055e-015 5.96354e-016 0 3.18055e-015 8.94531e-016 -1.98785e-016 6.36111e-015 0 0 -0 -1.4496 0.0636048 -5.0245 -1.74811 1.20616 -16.8394 -1.19271e-015 1.98785e-016 -3.18055e-015 -3.97569e-016 1.98785e-016 -3.18055e-015 -2.98177e-016 1.98785e-016 -3.18055e-015 -2.98177e-016 3.97569e-016 -0 4.96962e-016 0 -6.36111e-015 -9.93923e-017 3.97569e-016 -0 -8.94531e-016 5.96354e-016 -0 -3.97569e-016 3.97569e-016 -0 -9.93923e-017 3.97569e-016 -0 -8.94531e-016 5.96354e-016 -0 -3.97569e-016 3.97569e-016 -0 4.96962e-016 0 -6.36111e-015 -9.93923e-017 3.97569e-016 -0 -8.94531e-016 5.96354e-016 -0 -3.97569e-016 3.97569e-016 -0 -9.93923e-017 3.97569e-016 -0 -8.94531e-016 5.96354e-016 -0 -3.97569e-016 3.97569e-016 -0 -4.66111 -0.998717 0.12318 0.00986924 1.54847 0.176523 4.65186 -0.572283 -0.254274 4.66111 -0.998765 -0.123176 -0.00986867 1.54869 -0.176537 -4.65186 -0.572453 0.25427 
-0.529719 88.6026 4.09312 0 0.180497 -0 -0.184132 3.00303 -0.0994694 -0.363788 6.00637 -0.18965 -0.363788 6.00636 -0.18965 6.31958e-006 -0.547794 1.14599e-006 -2.07071e-007 -0.409546 -7.31486e-009 -5.92789 -0.14404 6.77585e-007 -41.1262 -0.336662 2.80431 0.158293 0.308129 -3.47096 -4.8229 1.90502 -0.00785105 -1.12874e-007 -3.76735e-007 7.57009e-007 2.25747e-007 7.5347e-007 -1.51402e-006 1.12874e-007 3.76735e-007 -7.57009e-007 4.77083e-015 3.18055e-015 -0 -1.12874e-007 -3.76735e-007 7.57009e-007 2.25747e-007 7.5347e-007 -1.51402e-006 1.12874e-007 3.76735e-007 -7.57009e-007 -1.12874e-007 -3.76735e-007 7.57009e-007 2.25747e-007 7.5347e-007 -1.51402e-006 1.12874e-007 3.76735e-007 -7.57009e-007 4.77083e-015 3.18055e-015 -0 -1.12874e-007 -3.76735e-007 7.57009e-007 2.25747e-007 7.5347e-007 -1.51402e-006 1.12874e-007 3.76735e-007 -7.57009e-007 -1.12874e-007 -3.76735e-007 7.57009e-007 2.25747e-007 7.5347e-007 -1.51402e-006 1.12874e-007 3.76735e-007 -7.57009e-007 5.9253 -0.144221 -9.78103e-007 41.3349 -0.346967 -2.07193 -1.94578 0.0882543 2.3874 4.80831 1.93239 0.0472197 1.98785e-015 4.77083e-015 1.59028e-015 -3.57812e-015 4.77083e-015 -0 -7.15625e-015 1.59028e-015 1.59028e-015 1.98785e-015 3.18055e-015 1.59028e-015 -5.1684e-015 1.59028e-015 4.77083e-015 -8.74653e-015 0 1.59028e-015 -5.56597e-015 3.18055e-015 -0 -5.1684e-015 1.59028e-015 4.77083e-015 -8.74653e-015 0 1.59028e-015 -5.56597e-015 3.18055e-015 -0 1.98785e-015 3.18055e-015 1.59028e-015 -5.1684e-015 1.59028e-015 4.77083e-015 -8.74653e-015 0 1.59028e-015 -5.56597e-015 3.18055e-015 -0 -5.1684e-015 1.59028e-015 4.77083e-015 -8.74653e-015 0 1.59028e-015 -5.56597e-015 3.18055e-015 -0 2.86794 -17.3243 10.2279 1.21682 30.4441 -0.25677 -7.26546 -12.4922 1.49035 -2.05543 -17.4596 -10.1385 -1.39006 30.6854 0.351637 6.64757 -12.8261 -1.74421 
-0.768524 87.1374 4.78648 -0 -0.631282 -0 -0.255239 4.53211 -0.153963 -0.500578 9.06486 -0.28896 -0.500578 9.06487 -0.28896 1.59763e-005 -1.09006 1.32424e-006 7.16379e-008 -0.816969 4.47882e-008 -8.59545 -0.208881 -1.19144e-006 -60.3929 -0.525043 1.47519 0.171356 0.0315288 -12.1337 -6.9951 2.76111 0.0409703 1.53653e-005 -6.09467e-006 1.40845e-006 4.38725e-006 3.68834e-007 -2.6186e-007 -1.59028e-015 0 -3.18055e-015 1.98785e-016 1.59028e-015 -1.59028e-015 1.53653e-005 -6.09467e-006 1.40845e-006 4.38725e-006 3.68834e-007 -2.6186e-007 -3.18055e-015 0 -1.59028e-015 1.53653e-005 -6.09467e-006 1.40845e-006 4.38725e-006 3.68834e-007 -2.6186e-007 -3.18055e-015 0 -1.59028e-015 1.98785e-016 1.59028e-015 -1.59028e-015 1.53653e-005 -6.09467e-006 1.40845e-006 4.38725e-006 3.68834e-007 -2.6186e-007 -3.18055e-015 0 -1.59028e-015 1.53653e-005 -6.09467e-006 1.40845e-006 4.38725e-006 3.68834e-007 -2.6186e-007 -3.18055e-015 0 -1.59028e-015 8.59169 -0.209145 1.8186e-006 60.6004 -0.531008 -0.743165 -1.91079 -0.42332 11.0383 6.97357 2.80186 0.0155048 -2.70108e-006 -1.35214e-006 1.22687e-006 -1.43423e-006 3.95476e-007 1.80034e-007 4.37326e-015 -1.59028e-015 -1.59028e-015 5.36719e-015 0 -0 -2.70108e-006 -1.35214e-006 1.22687e-006 -1.43423e-006 3.95476e-007 1.80034e-007 1.19271e-015 0 -0 -2.70108e-006 -1.35214e-006 1.22687e-006 -1.43423e-006 3.95476e-007 1.80034e-007 1.19271e-015 0 -0 5.36719e-015 0 -0 -2.70108e-006 -1.35214e-006 1.22687e-006 -1.43423e-006 3.95476e-007 1.80034e-007 1.19271e-015 0 -0 -2.70108e-006 -1.35214e-006 1.22687e-006 -1.43423e-006 3.95476e-007 1.80034e-007 1.19271e-015 0 -0 8.09437 -23.483 15.4094 2.29856 43.4455 -0.60025 -12.262 -18.0101 2.50785 -6.92313 -23.6834 -15.2992 -2.58685 43.7913 0.768642 11.3136 -18.4867 -2.88736 
-0.715527 87.5383 4.59075 -0 -2.43671 -0 -0.233277 4.58815 -0.138109 -0.457629 9.17679 -0.258656 -0.457629 9.17679 -0.258656 1.46616e-005 -1.62658 3.90673e-007 6.96798e-008 -1.22235 -2.00565e-009 -8.00266 -0.194455 1.25186e-006 -56.1107 -0.483246 1.77056 0.172063 0.0931219 -10.2087 -6.5122 2.57104 0.0273087 -2.38542e-015 1.59028e-015 -0 -8.34896e-015 1.59028e-015 -1.59028e-015 -2.78299e-015 0 -0 7.95139e-016 0 -0 -6.36111e-015 1.59028e-015 1.59028e-015 -6.36111e-015 -1.59028e-015 -0 -9.54166e-015 -1.59028e-015 -1.59028e-015 -6.36111e-015 1.59028e-015 1.59028e-015 -6.36111e-015 -1.59028e-015 -0 -9.54166e-015 -1.59028e-015 -1.59028e-015 7.95139e-016 0 -0 -6.36111e-015 1.59028e-015 1.59028e-015 -6.36111e-015 -1.59028e-015 -0 -9.54166e-015 -1.59028e-015 -1.59028e-015 -6.36111e-015 1.59028e-015 1.59028e-015 -6.36111e-015 -1.59028e-015 -0 -9.54166e-015 -1.59028e-015 -1.59028e-015 7.99916 -0.194704 -1.15701e-006 56.3185 -0.490177 -1.03846 -1.92522 -0.310186 9.11583 6.49221 2.60875 0.025398 -2.98177e-015 -1.59028e-015 -0 -2.37459e-007 1.65242e-006 9.24968e-007 2.87711e-008 -7.00472e-007 4.75976e-007 -2.78299e-015 -1.59028e-015 -1.59028e-015 3.37934e-015 -1.59028e-015 4.77083e-015 -2.37459e-007 1.65242e-006 9.24968e-007 2.87711e-008 -7.00472e-007 4.75976e-007 3.37934e-015 -1.59028e-015 4.77083e-015 -2.37459e-007 1.65242e-006 9.24968e-007 2.87711e-008 -7.00472e-007 4.75976e-007 -2.78299e-015 -1.59028e-015 -1.59028e-015 3.37934e-015 -1.59028e-015 4.77083e-015 -2.37459e-007 1.65242e-006 9.24968e-007 2.87711e-008 -7.00472e-007 4.75976e-007 3.37934e-015 -1.59028e-015 4.77083e-015 -2.37459e-007 1.65242e-006 9.24968e-007 2.87711e-008 -7.00472e-007 4.75976e-007 6.79928 -19.7624 14.0541 1.90012 40.0464 -0.442809 -11.1756 -16.8121 2.26178 -5.72218 -19.9449 -13.9781 -2.14231 40.3725 0.581842 10.3043 -17.2567 -2.61244 
